<?xml version="1.0" encoding="UTF-8"?>
<svg width="24px" height="24px" viewBox="0 0 24 24" version="1.1" xmlns="http://www.w3.org/2000/svg" xmlns:xlink="http://www.w3.org/1999/xlink">
    <!-- Generator: Sketch 54 (76480) - https://sketchapp.com -->
    <title>icn_europe</title>
    <desc>Created with Sketch.</desc>
    <g id="icn_europe" stroke="none" stroke-width="1" fill="none" fill-rule="evenodd">
        <g id="icon/24/europe" fill="#FFCC00">
            <g id="European_stars" transform="translate(2.000000, 2.000000)">
                <g id="s" transform="translate(8.391608, 0.000000)" fill-rule="nonzero">
                    <g id="c" transform="translate(0.909091, 0.000000)">
                        <polyline id="t" transform="translate(0.815742, 0.781318) rotate(18.000000) translate(-0.815742, -0.781318) " points="0.4635592 0.0742228111 0.4679165 1.4862346 1.16792509 1.48841325"></polyline>
                        <g id="t-link" transform="translate(0.594406, 0.812721) scale(-1, 1) translate(-0.594406, -0.812721) ">
                            <polyline id="t" transform="translate(0.605952, 0.781318) rotate(18.000000) translate(-0.605952, -0.781318) " points="0.25376899 0.0742228111 0.25812629 1.4862346 0.958134876 1.48841325"></polyline>
                        </g>
                    </g>
                    <g id="c-link" transform="translate(2.173705, 1.227799) rotate(72.000000) translate(-2.173705, -1.227799) translate(1.474404, 0.415078)">
                        <g id="c">
                            <polyline id="t" transform="translate(0.815742, 0.781318) rotate(18.000000) translate(-0.815742, -0.781318) " points="0.4635592 0.0742228111 0.4679165 1.4862346 1.16792509 1.48841325"></polyline>
                            <g id="t-link" transform="translate(0.594406, 0.812721) scale(-1, 1) translate(-0.594406, -0.812721) ">
                                <polyline id="t" transform="translate(0.605952, 0.781318) rotate(18.000000) translate(-0.605952, -0.781318) " points="0.25376899 0.0742228111 0.25812629 1.4862346 0.958134876 1.48841325"></polyline>
                            </g>
                        </g>
                    </g>
                    <g id="c-link" transform="translate(1.957774, 1.899410) rotate(144.000000) translate(-1.957774, -1.899410) translate(1.258474, 1.086689)">
                        <g id="c">
                            <polyline id="t" transform="translate(0.815742, 0.781318) rotate(18.000000) translate(-0.815742, -0.781318) " points="0.4635592 0.0742228111 0.4679165 1.4862346 1.16792509 1.48841325"></polyline>
                            <g id="t-link" transform="translate(0.594406, 0.812721) scale(-1, 1) translate(-0.594406, -0.812721) ">
                                <polyline id="t" transform="translate(0.605952, 0.781318) rotate(18.000000) translate(-0.605952, -0.781318) " points="0.25376899 0.0742228111 0.25812629 1.4862346 0.958134876 1.48841325"></polyline>
                            </g>
                        </g>
                    </g>
                    <g id="c-link" transform="translate(1.259009, 1.899410) rotate(-144.000000) translate(-1.259009, -1.899410) translate(0.559708, 1.086689)">
                        <g id="c">
                            <polyline id="t" transform="translate(0.815742, 0.781318) rotate(18.000000) translate(-0.815742, -0.781318) " points="0.4635592 0.0742228111 0.4679165 1.4862346 1.16792509 1.48841325"></polyline>
                            <g id="t-link" transform="translate(0.594406, 0.812721) scale(-1, 1) translate(-0.594406, -0.812721) ">
                                <polyline id="t" transform="translate(0.605952, 0.781318) rotate(18.000000) translate(-0.605952, -0.781318) " points="0.25376899 0.0742228111 0.25812629 1.4862346 0.958134876 1.48841325"></polyline>
                            </g>
                        </g>
                    </g>
                    <g id="c-link" transform="translate(1.043078, 1.227799) rotate(-72.000000) translate(-1.043078, -1.227799) translate(0.343778, 0.415078)">
                        <g id="c">
                            <polyline id="t" transform="translate(0.815742, 0.781318) rotate(18.000000) translate(-0.815742, -0.781318) " points="0.4635592 0.0742228111 0.4679165 1.4862346 1.16792509 1.48841325"></polyline>
                            <g id="t-link" transform="translate(0.594406, 0.812721) scale(-1, 1) translate(-0.594406, -0.812721) ">
                                <polyline id="t" transform="translate(0.605952, 0.781318) rotate(18.000000) translate(-0.605952, -0.781318) " points="0.25376899 0.0742228111 0.25812629 1.4862346 0.958134876 1.48841325"></polyline>
                            </g>
                        </g>
                    </g>
                </g>
                <g id="s-link" transform="translate(12.587413, 1.136180)" fill-rule="nonzero">
                    <g id="s">
                        <g id="c" transform="translate(0.909091, 0.000000)">
                            <polyline id="t" transform="translate(0.815742, 0.781318) rotate(18.000000) translate(-0.815742, -0.781318) " points="0.4635592 0.0742228111 0.4679165 1.4862346 1.16792509 1.48841325"></polyline>
                            <g id="t-link" transform="translate(0.594406, 0.812721) scale(-1, 1) translate(-0.594406, -0.812721) ">
                                <polyline id="t" transform="translate(0.605952, 0.781318) rotate(18.000000) translate(-0.605952, -0.781318) " points="0.25376899 0.0742228111 0.25812629 1.4862346 0.958134876 1.48841325"></polyline>
                            </g>
                        </g>
                        <g id="c-link" transform="translate(2.173705, 1.227799) rotate(72.000000) translate(-2.173705, -1.227799) translate(1.474404, 0.415078)">
                            <g id="c">
                                <polyline id="t" transform="translate(0.815742, 0.781318) rotate(18.000000) translate(-0.815742, -0.781318) " points="0.4635592 0.0742228111 0.4679165 1.4862346 1.16792509 1.48841325"></polyline>
                                <g id="t-link" transform="translate(0.594406, 0.812721) scale(-1, 1) translate(-0.594406, -0.812721) ">
                                    <polyline id="t" transform="translate(0.605952, 0.781318) rotate(18.000000) translate(-0.605952, -0.781318) " points="0.25376899 0.0742228111 0.25812629 1.4862346 0.958134876 1.48841325"></polyline>
                                </g>
                            </g>
                        </g>
                        <g id="c-link" transform="translate(1.957774, 1.899410) rotate(144.000000) translate(-1.957774, -1.899410) translate(1.258474, 1.086689)">
                            <g id="c">
                                <polyline id="t" transform="translate(0.815742, 0.781318) rotate(18.000000) translate(-0.815742, -0.781318) " points="0.4635592 0.0742228111 0.4679165 1.4862346 1.16792509 1.48841325"></polyline>
                                <g id="t-link" transform="translate(0.594406, 0.812721) scale(-1, 1) translate(-0.594406, -0.812721) ">
                                    <polyline id="t" transform="translate(0.605952, 0.781318) rotate(18.000000) translate(-0.605952, -0.781318) " points="0.25376899 0.0742228111 0.25812629 1.4862346 0.958134876 1.48841325"></polyline>
                                </g>
                            </g>
                        </g>
                        <g id="c-link" transform="translate(1.259009, 1.899410) rotate(-144.000000) translate(-1.259009, -1.899410) translate(0.559708, 1.086689)">
                            <g id="c">
                                <polyline id="t" transform="translate(0.815742, 0.781318) rotate(18.000000) translate(-0.815742, -0.781318) " points="0.4635592 0.0742228111 0.4679165 1.4862346 1.16792509 1.48841325"></polyline>
                                <g id="t-link" transform="translate(0.594406, 0.812721) scale(-1, 1) translate(-0.594406, -0.812721) ">
                                    <polyline id="t" transform="translate(0.605952, 0.781318) rotate(18.000000) translate(-0.605952, -0.781318) " points="0.25376899 0.0742228111 0.25812629 1.4862346 0.958134876 1.48841325"></polyline>
                                </g>
                            </g>
                        </g>
                        <g id="c-link" transform="translate(1.043078, 1.227799) rotate(-72.000000) translate(-1.043078, -1.227799) translate(0.343778, 0.415078)">
                            <g id="c">
                                <polyline id="t" transform="translate(0.815742, 0.781318) rotate(18.000000) translate(-0.815742, -0.781318) " points="0.4635592 0.0742228111 0.4679165 1.4862346 1.16792509 1.48841325"></polyline>
                                <g id="t-link" transform="translate(0.594406, 0.812721) scale(-1, 1) translate(-0.594406, -0.812721) ">
                                    <polyline id="t" transform="translate(0.605952, 0.781318) rotate(18.000000) translate(-0.605952, -0.781318) " points="0.25376899 0.0742228111 0.25812629 1.4862346 0.958134876 1.48841325"></polyline>
                                </g>
                            </g>
                        </g>
                    </g>
                </g>
                <g id="s-link" transform="translate(15.658954, 4.240283)" fill-rule="nonzero">
                    <g id="s">
                        <g id="c" transform="translate(0.909091, 0.000000)">
                            <polyline id="t" transform="translate(0.815742, 0.781318) rotate(18.000000) translate(-0.815742, -0.781318) " points="0.4635592 0.0742228111 0.4679165 1.4862346 1.16792509 1.48841325"></polyline>
                            <g id="t-link" transform="translate(0.594406, 0.812721) scale(-1, 1) translate(-0.594406, -0.812721) ">
                                <polyline id="t" transform="translate(0.605952, 0.781318) rotate(18.000000) translate(-0.605952, -0.781318) " points="0.25376899 0.0742228111 0.25812629 1.4862346 0.958134876 1.48841325"></polyline>
                            </g>
                        </g>
                        <g id="c-link" transform="translate(2.173705, 1.227799) rotate(72.000000) translate(-2.173705, -1.227799) translate(1.474404, 0.415078)">
                            <g id="c">
                                <polyline id="t" transform="translate(0.815742, 0.781318) rotate(18.000000) translate(-0.815742, -0.781318) " points="0.4635592 0.0742228111 0.4679165 1.4862346 1.16792509 1.48841325"></polyline>
                                <g id="t-link" transform="translate(0.594406, 0.812721) scale(-1, 1) translate(-0.594406, -0.812721) ">
                                    <polyline id="t" transform="translate(0.605952, 0.781318) rotate(18.000000) translate(-0.605952, -0.781318) " points="0.25376899 0.0742228111 0.25812629 1.4862346 0.958134876 1.48841325"></polyline>
                                </g>
                            </g>
                        </g>
                        <g id="c-link" transform="translate(1.957774, 1.899410) rotate(144.000000) translate(-1.957774, -1.899410) translate(1.258474, 1.086689)">
                            <g id="c">
                                <polyline id="t" transform="translate(0.815742, 0.781318) rotate(18.000000) translate(-0.815742, -0.781318) " points="0.4635592 0.0742228111 0.4679165 1.4862346 1.16792509 1.48841325"></polyline>
                                <g id="t-link" transform="translate(0.594406, 0.812721) scale(-1, 1) translate(-0.594406, -0.812721) ">
                                    <polyline id="t" transform="translate(0.605952, 0.781318) rotate(18.000000) translate(-0.605952, -0.781318) " points="0.25376899 0.0742228111 0.25812629 1.4862346 0.958134876 1.48841325"></polyline>
                                </g>
                            </g>
                        </g>
                        <g id="c-link" transform="translate(1.259009, 1.899410) rotate(-144.000000) translate(-1.259009, -1.899410) translate(0.559708, 1.086689)">
                            <g id="c">
                                <polyline id="t" transform="translate(0.815742, 0.781318) rotate(18.000000) translate(-0.815742, -0.781318) " points="0.4635592 0.0742228111 0.4679165 1.4862346 1.16792509 1.48841325"></polyline>
                                <g id="t-link" transform="translate(0.594406, 0.812721) scale(-1, 1) translate(-0.594406, -0.812721) ">
                                    <polyline id="t" transform="translate(0.605952, 0.781318) rotate(18.000000) translate(-0.605952, -0.781318) " points="0.25376899 0.0742228111 0.25812629 1.4862346 0.958134876 1.48841325"></polyline>
                                </g>
                            </g>
                        </g>
                        <g id="c-link" transform="translate(1.043078, 1.227799) rotate(-72.000000) translate(-1.043078, -1.227799) translate(0.343778, 0.415078)">
                            <g id="c">
                                <polyline id="t" transform="translate(0.815742, 0.781318) rotate(18.000000) translate(-0.815742, -0.781318) " points="0.4635592 0.0742228111 0.4679165 1.4862346 1.16792509 1.48841325"></polyline>
                                <g id="t-link" transform="translate(0.594406, 0.812721) scale(-1, 1) translate(-0.594406, -0.812721) ">
                                    <polyline id="t" transform="translate(0.605952, 0.781318) rotate(18.000000) translate(-0.605952, -0.781318) " points="0.25376899 0.0742228111 0.25812629 1.4862346 0.958134876 1.48841325"></polyline>
                                </g>
                            </g>
                        </g>
                    </g>
                </g>
                <g id="s-link" transform="translate(16.783217, 8.480565)" fill-rule="nonzero">
                    <g id="s">
                        <g id="c" transform="translate(0.909091, 0.000000)">
                            <polyline id="t" transform="translate(0.815742, 0.781318) rotate(18.000000) translate(-0.815742, -0.781318) " points="0.4635592 0.0742228111 0.4679165 1.4862346 1.16792509 1.48841325"></polyline>
                            <g id="t-link" transform="translate(0.594406, 0.812721) scale(-1, 1) translate(-0.594406, -0.812721) ">
                                <polyline id="t" transform="translate(0.605952, 0.781318) rotate(18.000000) translate(-0.605952, -0.781318) " points="0.25376899 0.0742228111 0.25812629 1.4862346 0.958134876 1.48841325"></polyline>
                            </g>
                        </g>
                        <g id="c-link" transform="translate(2.173705, 1.227799) rotate(72.000000) translate(-2.173705, -1.227799) translate(1.474404, 0.415078)">
                            <g id="c">
                                <polyline id="t" transform="translate(0.815742, 0.781318) rotate(18.000000) translate(-0.815742, -0.781318) " points="0.4635592 0.0742228111 0.4679165 1.4862346 1.16792509 1.48841325"></polyline>
                                <g id="t-link" transform="translate(0.594406, 0.812721) scale(-1, 1) translate(-0.594406, -0.812721) ">
                                    <polyline id="t" transform="translate(0.605952, 0.781318) rotate(18.000000) translate(-0.605952, -0.781318) " points="0.25376899 0.0742228111 0.25812629 1.4862346 0.958134876 1.48841325"></polyline>
                                </g>
                            </g>
                        </g>
                        <g id="c-link" transform="translate(1.957774, 1.899410) rotate(144.000000) translate(-1.957774, -1.899410) translate(1.258474, 1.086689)">
                            <g id="c">
                                <polyline id="t" transform="translate(0.815742, 0.781318) rotate(18.000000) translate(-0.815742, -0.781318) " points="0.4635592 0.0742228111 0.4679165 1.4862346 1.16792509 1.48841325"></polyline>
                                <g id="t-link" transform="translate(0.594406, 0.812721) scale(-1, 1) translate(-0.594406, -0.812721) ">
                                    <polyline id="t" transform="translate(0.605952, 0.781318) rotate(18.000000) translate(-0.605952, -0.781318) " points="0.25376899 0.0742228111 0.25812629 1.4862346 0.958134876 1.48841325"></polyline>
                                </g>
                            </g>
                        </g>
                        <g id="c-link" transform="translate(1.259009, 1.899410) rotate(-144.000000) translate(-1.259009, -1.899410) translate(0.559708, 1.086689)">
                            <g id="c">
                                <polyline id="t" transform="translate(0.815742, 0.781318) rotate(18.000000) translate(-0.815742, -0.781318) " points="0.4635592 0.0742228111 0.4679165 1.4862346 1.16792509 1.48841325"></polyline>
                                <g id="t-link" transform="translate(0.594406, 0.812721) scale(-1, 1) translate(-0.594406, -0.812721) ">
                                    <polyline id="t" transform="translate(0.605952, 0.781318) rotate(18.000000) translate(-0.605952, -0.781318) " points="0.25376899 0.0742228111 0.25812629 1.4862346 0.958134876 1.48841325"></polyline>
                                </g>
                            </g>
                        </g>
                        <g id="c-link" transform="translate(1.043078, 1.227799) rotate(-72.000000) translate(-1.043078, -1.227799) translate(0.343778, 0.415078)">
                            <g id="c">
                                <polyline id="t" transform="translate(0.815742, 0.781318) rotate(18.000000) translate(-0.815742, -0.781318) " points="0.4635592 0.0742228111 0.4679165 1.4862346 1.16792509 1.48841325"></polyline>
                                <g id="t-link" transform="translate(0.594406, 0.812721) scale(-1, 1) translate(-0.594406, -0.812721) ">
                                    <polyline id="t" transform="translate(0.605952, 0.781318) rotate(18.000000) translate(-0.605952, -0.781318) " points="0.25376899 0.0742228111 0.25812629 1.4862346 0.958134876 1.48841325"></polyline>
                                </g>
                            </g>
                        </g>
                    </g>
                </g>
                <g id="s-link" transform="translate(15.658954, 12.720848)" fill-rule="nonzero">
                    <g id="s">
                        <g id="c" transform="translate(0.909091, 0.000000)">
                            <polyline id="t" transform="translate(0.815742, 0.781318) rotate(18.000000) translate(-0.815742, -0.781318) " points="0.4635592 0.0742228111 0.4679165 1.4862346 1.16792509 1.48841325"></polyline>
                            <g id="t-link" transform="translate(0.594406, 0.812721) scale(-1, 1) translate(-0.594406, -0.812721) ">
                                <polyline id="t" transform="translate(0.605952, 0.781318) rotate(18.000000) translate(-0.605952, -0.781318) " points="0.25376899 0.0742228111 0.25812629 1.4862346 0.958134876 1.48841325"></polyline>
                            </g>
                        </g>
                        <g id="c-link" transform="translate(2.173705, 1.227799) rotate(72.000000) translate(-2.173705, -1.227799) translate(1.474404, 0.415078)">
                            <g id="c">
                                <polyline id="t" transform="translate(0.815742, 0.781318) rotate(18.000000) translate(-0.815742, -0.781318) " points="0.4635592 0.0742228111 0.4679165 1.4862346 1.16792509 1.48841325"></polyline>
                                <g id="t-link" transform="translate(0.594406, 0.812721) scale(-1, 1) translate(-0.594406, -0.812721) ">
                                    <polyline id="t" transform="translate(0.605952, 0.781318) rotate(18.000000) translate(-0.605952, -0.781318) " points="0.25376899 0.0742228111 0.25812629 1.4862346 0.958134876 1.48841325"></polyline>
                                </g>
                            </g>
                        </g>
                        <g id="c-link" transform="translate(1.957774, 1.899410) rotate(144.000000) translate(-1.957774, -1.899410) translate(1.258474, 1.086689)">
                            <g id="c">
                                <polyline id="t" transform="translate(0.815742, 0.781318) rotate(18.000000) translate(-0.815742, -0.781318) " points="0.4635592 0.0742228111 0.4679165 1.4862346 1.16792509 1.48841325"></polyline>
                                <g id="t-link" transform="translate(0.594406, 0.812721) scale(-1, 1) translate(-0.594406, -0.812721) ">
                                    <polyline id="t" transform="translate(0.605952, 0.781318) rotate(18.000000) translate(-0.605952, -0.781318) " points="0.25376899 0.0742228111 0.25812629 1.4862346 0.958134876 1.48841325"></polyline>
                                </g>
                            </g>
                        </g>
                        <g id="c-link" transform="translate(1.259009, 1.899410) rotate(-144.000000) translate(-1.259009, -1.899410) translate(0.559708, 1.086689)">
                            <g id="c">
                                <polyline id="t" transform="translate(0.815742, 0.781318) rotate(18.000000) translate(-0.815742, -0.781318) " points="0.4635592 0.0742228111 0.4679165 1.4862346 1.16792509 1.48841325"></polyline>
                                <g id="t-link" transform="translate(0.594406, 0.812721) scale(-1, 1) translate(-0.594406, -0.812721) ">
                                    <polyline id="t" transform="translate(0.605952, 0.781318) rotate(18.000000) translate(-0.605952, -0.781318) " points="0.25376899 0.0742228111 0.25812629 1.4862346 0.958134876 1.48841325"></polyline>
                                </g>
                            </g>
                        </g>
                        <g id="c-link" transform="translate(1.043078, 1.227799) rotate(-72.000000) translate(-1.043078, -1.227799) translate(0.343778, 0.415078)">
                            <g id="c">
                                <polyline id="t" transform="translate(0.815742, 0.781318) rotate(18.000000) translate(-0.815742, -0.781318) " points="0.4635592 0.0742228111 0.4679165 1.4862346 1.16792509 1.48841325"></polyline>
                                <g id="t-link" transform="translate(0.594406, 0.812721) scale(-1, 1) translate(-0.594406, -0.812721) ">
                                    <polyline id="t" transform="translate(0.605952, 0.781318) rotate(18.000000) translate(-0.605952, -0.781318) " points="0.25376899 0.0742228111 0.25812629 1.4862346 0.958134876 1.48841325"></polyline>
                                </g>
                            </g>
                        </g>
                    </g>
                </g>
                <g id="s-link" transform="translate(12.587413, 15.824950)" fill-rule="nonzero">
                    <g id="s">
                        <g id="c" transform="translate(0.909091, 0.000000)">
                            <polyline id="t" transform="translate(0.815742, 0.781318) rotate(18.000000) translate(-0.815742, -0.781318) " points="0.4635592 0.0742228111 0.4679165 1.4862346 1.16792509 1.48841325"></polyline>
                            <g id="t-link" transform="translate(0.594406, 0.812721) scale(-1, 1) translate(-0.594406, -0.812721) ">
                                <polyline id="t" transform="translate(0.605952, 0.781318) rotate(18.000000) translate(-0.605952, -0.781318) " points="0.25376899 0.0742228111 0.25812629 1.4862346 0.958134876 1.48841325"></polyline>
                            </g>
                        </g>
                        <g id="c-link" transform="translate(2.173705, 1.227799) rotate(72.000000) translate(-2.173705, -1.227799) translate(1.474404, 0.415078)">
                            <g id="c">
                                <polyline id="t" transform="translate(0.815742, 0.781318) rotate(18.000000) translate(-0.815742, -0.781318) " points="0.4635592 0.0742228111 0.4679165 1.4862346 1.16792509 1.48841325"></polyline>
                                <g id="t-link" transform="translate(0.594406, 0.812721) scale(-1, 1) translate(-0.594406, -0.812721) ">
                                    <polyline id="t" transform="translate(0.605952, 0.781318) rotate(18.000000) translate(-0.605952, -0.781318) " points="0.25376899 0.0742228111 0.25812629 1.4862346 0.958134876 1.48841325"></polyline>
                                </g>
                            </g>
                        </g>
                        <g id="c-link" transform="translate(1.957774, 1.899410) rotate(144.000000) translate(-1.957774, -1.899410) translate(1.258474, 1.086689)">
                            <g id="c">
                                <polyline id="t" transform="translate(0.815742, 0.781318) rotate(18.000000) translate(-0.815742, -0.781318) " points="0.4635592 0.0742228111 0.4679165 1.4862346 1.16792509 1.48841325"></polyline>
                                <g id="t-link" transform="translate(0.594406, 0.812721) scale(-1, 1) translate(-0.594406, -0.812721) ">
                                    <polyline id="t" transform="translate(0.605952, 0.781318) rotate(18.000000) translate(-0.605952, -0.781318) " points="0.25376899 0.0742228111 0.25812629 1.4862346 0.958134876 1.48841325"></polyline>
                                </g>
                            </g>
                        </g>
                        <g id="c-link" transform="translate(1.259009, 1.899410) rotate(-144.000000) translate(-1.259009, -1.899410) translate(0.559708, 1.086689)">
                            <g id="c">
                                <polyline id="t" transform="translate(0.815742, 0.781318) rotate(18.000000) translate(-0.815742, -0.781318) " points="0.4635592 0.0742228111 0.4679165 1.4862346 1.16792509 1.48841325"></polyline>
                                <g id="t-link" transform="translate(0.594406, 0.812721) scale(-1, 1) translate(-0.594406, -0.812721) ">
                                    <polyline id="t" transform="translate(0.605952, 0.781318) rotate(18.000000) translate(-0.605952, -0.781318) " points="0.25376899 0.0742228111 0.25812629 1.4862346 0.958134876 1.48841325"></polyline>
                                </g>
                            </g>
                        </g>
                        <g id="c-link" transform="translate(1.043078, 1.227799) rotate(-72.000000) translate(-1.043078, -1.227799) translate(0.343778, 0.415078)">
                            <g id="c">
                                <polyline id="t" transform="translate(0.815742, 0.781318) rotate(18.000000) translate(-0.815742, -0.781318) " points="0.4635592 0.0742228111 0.4679165 1.4862346 1.16792509 1.48841325"></polyline>
                                <g id="t-link" transform="translate(0.594406, 0.812721) scale(-1, 1) translate(-0.594406, -0.812721) ">
                                    <polyline id="t" transform="translate(0.605952, 0.781318) rotate(18.000000) translate(-0.605952, -0.781318) " points="0.25376899 0.0742228111 0.25812629 1.4862346 0.958134876 1.48841325"></polyline>
                                </g>
                            </g>
                        </g>
                    </g>
                </g>
                <g id="s-link" transform="translate(8.391608, 16.961131)" fill-rule="nonzero">
                    <g id="s">
                        <g id="c" transform="translate(0.909091, 0.000000)">
                            <polyline id="t" transform="translate(0.815742, 0.781318) rotate(18.000000) translate(-0.815742, -0.781318) " points="0.4635592 0.0742228111 0.4679165 1.4862346 1.16792509 1.48841325"></polyline>
                            <g id="t-link" transform="translate(0.594406, 0.812721) scale(-1, 1) translate(-0.594406, -0.812721) ">
                                <polyline id="t" transform="translate(0.605952, 0.781318) rotate(18.000000) translate(-0.605952, -0.781318) " points="0.25376899 0.0742228111 0.25812629 1.4862346 0.958134876 1.48841325"></polyline>
                            </g>
                        </g>
                        <g id="c-link" transform="translate(2.173705, 1.227799) rotate(72.000000) translate(-2.173705, -1.227799) translate(1.474404, 0.415078)">
                            <g id="c">
                                <polyline id="t" transform="translate(0.815742, 0.781318) rotate(18.000000) translate(-0.815742, -0.781318) " points="0.4635592 0.0742228111 0.4679165 1.4862346 1.16792509 1.48841325"></polyline>
                                <g id="t-link" transform="translate(0.594406, 0.812721) scale(-1, 1) translate(-0.594406, -0.812721) ">
                                    <polyline id="t" transform="translate(0.605952, 0.781318) rotate(18.000000) translate(-0.605952, -0.781318) " points="0.25376899 0.0742228111 0.25812629 1.4862346 0.958134876 1.48841325"></polyline>
                                </g>
                            </g>
                        </g>
                        <g id="c-link" transform="translate(1.957774, 1.899410) rotate(144.000000) translate(-1.957774, -1.899410) translate(1.258474, 1.086689)">
                            <g id="c">
                                <polyline id="t" transform="translate(0.815742, 0.781318) rotate(18.000000) translate(-0.815742, -0.781318) " points="0.4635592 0.0742228111 0.4679165 1.4862346 1.16792509 1.48841325"></polyline>
                                <g id="t-link" transform="translate(0.594406, 0.812721) scale(-1, 1) translate(-0.594406, -0.812721) ">
                                    <polyline id="t" transform="translate(0.605952, 0.781318) rotate(18.000000) translate(-0.605952, -0.781318) " points="0.25376899 0.0742228111 0.25812629 1.4862346 0.958134876 1.48841325"></polyline>
                                </g>
                            </g>
                        </g>
                        <g id="c-link" transform="translate(1.259009, 1.899410) rotate(-144.000000) translate(-1.259009, -1.899410) translate(0.559708, 1.086689)">
                            <g id="c">
                                <polyline id="t" transform="translate(0.815742, 0.781318) rotate(18.000000) translate(-0.815742, -0.781318) " points="0.4635592 0.0742228111 0.4679165 1.4862346 1.16792509 1.48841325"></polyline>
                                <g id="t-link" transform="translate(0.594406, 0.812721) scale(-1, 1) translate(-0.594406, -0.812721) ">
                                    <polyline id="t" transform="translate(0.605952, 0.781318) rotate(18.000000) translate(-0.605952, -0.781318) " points="0.25376899 0.0742228111 0.25812629 1.4862346 0.958134876 1.48841325"></polyline>
                                </g>
                            </g>
                        </g>
                        <g id="c-link" transform="translate(1.043078, 1.227799) rotate(-72.000000) translate(-1.043078, -1.227799) translate(0.343778, 0.415078)">
                            <g id="c">
                                <polyline id="t" transform="translate(0.815742, 0.781318) rotate(18.000000) translate(-0.815742, -0.781318) " points="0.4635592 0.0742228111 0.4679165 1.4862346 1.16792509 1.48841325"></polyline>
                                <g id="t-link" transform="translate(0.594406, 0.812721) scale(-1, 1) translate(-0.594406, -0.812721) ">
                                    <polyline id="t" transform="translate(0.605952, 0.781318) rotate(18.000000) translate(-0.605952, -0.781318) " points="0.25376899 0.0742228111 0.25812629 1.4862346 0.958134876 1.48841325"></polyline>
                                </g>
                            </g>
                        </g>
                    </g>
                </g>
                <g id="s-link" transform="translate(4.195804, 15.824950)" fill-rule="nonzero">
                    <g id="s">
                        <g id="c" transform="translate(0.909091, 0.000000)">
                            <polyline id="t" transform="translate(0.815742, 0.781318) rotate(18.000000) translate(-0.815742, -0.781318) " points="0.4635592 0.0742228111 0.4679165 1.4862346 1.16792509 1.48841325"></polyline>
                            <g id="t-link" transform="translate(0.594406, 0.812721) scale(-1, 1) translate(-0.594406, -0.812721) ">
                                <polyline id="t" transform="translate(0.605952, 0.781318) rotate(18.000000) translate(-0.605952, -0.781318) " points="0.25376899 0.0742228111 0.25812629 1.4862346 0.958134876 1.48841325"></polyline>
                            </g>
                        </g>
                        <g id="c-link" transform="translate(2.173705, 1.227799) rotate(72.000000) translate(-2.173705, -1.227799) translate(1.474404, 0.415078)">
                            <g id="c">
                                <polyline id="t" transform="translate(0.815742, 0.781318) rotate(18.000000) translate(-0.815742, -0.781318) " points="0.4635592 0.0742228111 0.4679165 1.4862346 1.16792509 1.48841325"></polyline>
                                <g id="t-link" transform="translate(0.594406, 0.812721) scale(-1, 1) translate(-0.594406, -0.812721) ">
                                    <polyline id="t" transform="translate(0.605952, 0.781318) rotate(18.000000) translate(-0.605952, -0.781318) " points="0.25376899 0.0742228111 0.25812629 1.4862346 0.958134876 1.48841325"></polyline>
                                </g>
                            </g>
                        </g>
                        <g id="c-link" transform="translate(1.957774, 1.899410) rotate(144.000000) translate(-1.957774, -1.899410) translate(1.258474, 1.086689)">
                            <g id="c">
                                <polyline id="t" transform="translate(0.815742, 0.781318) rotate(18.000000) translate(-0.815742, -0.781318) " points="0.4635592 0.0742228111 0.4679165 1.4862346 1.16792509 1.48841325"></polyline>
                                <g id="t-link" transform="translate(0.594406, 0.812721) scale(-1, 1) translate(-0.594406, -0.812721) ">
                                    <polyline id="t" transform="translate(0.605952, 0.781318) rotate(18.000000) translate(-0.605952, -0.781318) " points="0.25376899 0.0742228111 0.25812629 1.4862346 0.958134876 1.48841325"></polyline>
                                </g>
                            </g>
                        </g>
                        <g id="c-link" transform="translate(1.259009, 1.899410) rotate(-144.000000) translate(-1.259009, -1.899410) translate(0.559708, 1.086689)">
                            <g id="c">
                                <polyline id="t" transform="translate(0.815742, 0.781318) rotate(18.000000) translate(-0.815742, -0.781318) " points="0.4635592 0.0742228111 0.4679165 1.4862346 1.16792509 1.48841325"></polyline>
                                <g id="t-link" transform="translate(0.594406, 0.812721) scale(-1, 1) translate(-0.594406, -0.812721) ">
                                    <polyline id="t" transform="translate(0.605952, 0.781318) rotate(18.000000) translate(-0.605952, -0.781318) " points="0.25376899 0.0742228111 0.25812629 1.4862346 0.958134876 1.48841325"></polyline>
                                </g>
                            </g>
                        </g>
                        <g id="c-link" transform="translate(1.043078, 1.227799) rotate(-72.000000) translate(-1.043078, -1.227799) translate(0.343778, 0.415078)">
                            <g id="c">
                                <polyline id="t" transform="translate(0.815742, 0.781318) rotate(18.000000) translate(-0.815742, -0.781318) " points="0.4635592 0.0742228111 0.4679165 1.4862346 1.16792509 1.48841325"></polyline>
                                <g id="t-link" transform="translate(0.594406, 0.812721) scale(-1, 1) translate(-0.594406, -0.812721) ">
                                    <polyline id="t" transform="translate(0.605952, 0.781318) rotate(18.000000) translate(-0.605952, -0.781318) " points="0.25376899 0.0742228111 0.25812629 1.4862346 0.958134876 1.48841325"></polyline>
                                </g>
                            </g>
                        </g>
                    </g>
                </g>
                <g id="s-link" transform="translate(1.124262, 12.720848)" fill-rule="nonzero">
                    <g id="s">
                        <g id="c" transform="translate(0.909091, 0.000000)">
                            <polyline id="t" transform="translate(0.815742, 0.781318) rotate(18.000000) translate(-0.815742, -0.781318) " points="0.4635592 0.0742228111 0.4679165 1.4862346 1.16792509 1.48841325"></polyline>
                            <g id="t-link" transform="translate(0.594406, 0.812721) scale(-1, 1) translate(-0.594406, -0.812721) ">
                                <polyline id="t" transform="translate(0.605952, 0.781318) rotate(18.000000) translate(-0.605952, -0.781318) " points="0.25376899 0.0742228111 0.25812629 1.4862346 0.958134876 1.48841325"></polyline>
                            </g>
                        </g>
                        <g id="c-link" transform="translate(2.173705, 1.227799) rotate(72.000000) translate(-2.173705, -1.227799) translate(1.474404, 0.415078)">
                            <g id="c">
                                <polyline id="t" transform="translate(0.815742, 0.781318) rotate(18.000000) translate(-0.815742, -0.781318) " points="0.4635592 0.0742228111 0.4679165 1.4862346 1.16792509 1.48841325"></polyline>
                                <g id="t-link" transform="translate(0.594406, 0.812721) scale(-1, 1) translate(-0.594406, -0.812721) ">
                                    <polyline id="t" transform="translate(0.605952, 0.781318) rotate(18.000000) translate(-0.605952, -0.781318) " points="0.25376899 0.0742228111 0.25812629 1.4862346 0.958134876 1.48841325"></polyline>
                                </g>
                            </g>
                        </g>
                        <g id="c-link" transform="translate(1.957774, 1.899410) rotate(144.000000) translate(-1.957774, -1.899410) translate(1.258474, 1.086689)">
                            <g id="c">
                                <polyline id="t" transform="translate(0.815742, 0.781318) rotate(18.000000) translate(-0.815742, -0.781318) " points="0.4635592 0.0742228111 0.4679165 1.4862346 1.16792509 1.48841325"></polyline>
                                <g id="t-link" transform="translate(0.594406, 0.812721) scale(-1, 1) translate(-0.594406, -0.812721) ">
                                    <polyline id="t" transform="translate(0.605952, 0.781318) rotate(18.000000) translate(-0.605952, -0.781318) " points="0.25376899 0.0742228111 0.25812629 1.4862346 0.958134876 1.48841325"></polyline>
                                </g>
                            </g>
                        </g>
                        <g id="c-link" transform="translate(1.259009, 1.899410) rotate(-144.000000) translate(-1.259009, -1.899410) translate(0.559708, 1.086689)">
                            <g id="c">
                                <polyline id="t" transform="translate(0.815742, 0.781318) rotate(18.000000) translate(-0.815742, -0.781318) " points="0.4635592 0.0742228111 0.4679165 1.4862346 1.16792509 1.48841325"></polyline>
                                <g id="t-link" transform="translate(0.594406, 0.812721) scale(-1, 1) translate(-0.594406, -0.812721) ">
                                    <polyline id="t" transform="translate(0.605952, 0.781318) rotate(18.000000) translate(-0.605952, -0.781318) " points="0.25376899 0.0742228111 0.25812629 1.4862346 0.958134876 1.48841325"></polyline>
                                </g>
                            </g>
                        </g>
                        <g id="c-link" transform="translate(1.043078, 1.227799) rotate(-72.000000) translate(-1.043078, -1.227799) translate(0.343778, 0.415078)">
                            <g id="c">
                                <polyline id="t" transform="translate(0.815742, 0.781318) rotate(18.000000) translate(-0.815742, -0.781318) " points="0.4635592 0.0742228111 0.4679165 1.4862346 1.16792509 1.48841325"></polyline>
                                <g id="t-link" transform="translate(0.594406, 0.812721) scale(-1, 1) translate(-0.594406, -0.812721) ">
                                    <polyline id="t" transform="translate(0.605952, 0.781318) rotate(18.000000) translate(-0.605952, -0.781318) " points="0.25376899 0.0742228111 0.25812629 1.4862346 0.958134876 1.48841325"></polyline>
                                </g>
                            </g>
                        </g>
                    </g>
                </g>
                <g id="s-link" transform="translate(0.000000, 8.480565)" fill-rule="nonzero">
                    <g id="s">
                        <g id="c" transform="translate(0.909091, 0.000000)">
                            <polyline id="t" transform="translate(0.815742, 0.781318) rotate(18.000000) translate(-0.815742, -0.781318) " points="0.4635592 0.0742228111 0.4679165 1.4862346 1.16792509 1.48841325"></polyline>
                            <g id="t-link" transform="translate(0.594406, 0.812721) scale(-1, 1) translate(-0.594406, -0.812721) ">
                                <polyline id="t" transform="translate(0.605952, 0.781318) rotate(18.000000) translate(-0.605952, -0.781318) " points="0.25376899 0.0742228111 0.25812629 1.4862346 0.958134876 1.48841325"></polyline>
                            </g>
                        </g>
                        <g id="c-link" transform="translate(2.173705, 1.227799) rotate(72.000000) translate(-2.173705, -1.227799) translate(1.474404, 0.415078)">
                            <g id="c">
                                <polyline id="t" transform="translate(0.815742, 0.781318) rotate(18.000000) translate(-0.815742, -0.781318) " points="0.4635592 0.0742228111 0.4679165 1.4862346 1.16792509 1.48841325"></polyline>
                                <g id="t-link" transform="translate(0.594406, 0.812721) scale(-1, 1) translate(-0.594406, -0.812721) ">
                                    <polyline id="t" transform="translate(0.605952, 0.781318) rotate(18.000000) translate(-0.605952, -0.781318) " points="0.25376899 0.0742228111 0.25812629 1.4862346 0.958134876 1.48841325"></polyline>
                                </g>
                            </g>
                        </g>
                        <g id="c-link" transform="translate(1.957774, 1.899410) rotate(144.000000) translate(-1.957774, -1.899410) translate(1.258474, 1.086689)">
                            <g id="c">
                                <polyline id="t" transform="translate(0.815742, 0.781318) rotate(18.000000) translate(-0.815742, -0.781318) " points="0.4635592 0.0742228111 0.4679165 1.4862346 1.16792509 1.48841325"></polyline>
                                <g id="t-link" transform="translate(0.594406, 0.812721) scale(-1, 1) translate(-0.594406, -0.812721) ">
                                    <polyline id="t" transform="translate(0.605952, 0.781318) rotate(18.000000) translate(-0.605952, -0.781318) " points="0.25376899 0.0742228111 0.25812629 1.4862346 0.958134876 1.48841325"></polyline>
                                </g>
                            </g>
                        </g>
                        <g id="c-link" transform="translate(1.259009, 1.899410) rotate(-144.000000) translate(-1.259009, -1.899410) translate(0.559708, 1.086689)">
                            <g id="c">
                                <polyline id="t" transform="translate(0.815742, 0.781318) rotate(18.000000) translate(-0.815742, -0.781318) " points="0.4635592 0.0742228111 0.4679165 1.4862346 1.16792509 1.48841325"></polyline>
                                <g id="t-link" transform="translate(0.594406, 0.812721) scale(-1, 1) translate(-0.594406, -0.812721) ">
                                    <polyline id="t" transform="translate(0.605952, 0.781318) rotate(18.000000) translate(-0.605952, -0.781318) " points="0.25376899 0.0742228111 0.25812629 1.4862346 0.958134876 1.48841325"></polyline>
                                </g>
                            </g>
                        </g>
                        <g id="c-link" transform="translate(1.043078, 1.227799) rotate(-72.000000) translate(-1.043078, -1.227799) translate(0.343778, 0.415078)">
                            <g id="c">
                                <polyline id="t" transform="translate(0.815742, 0.781318) rotate(18.000000) translate(-0.815742, -0.781318) " points="0.4635592 0.0742228111 0.4679165 1.4862346 1.16792509 1.48841325"></polyline>
                                <g id="t-link" transform="translate(0.594406, 0.812721) scale(-1, 1) translate(-0.594406, -0.812721) ">
                                    <polyline id="t" transform="translate(0.605952, 0.781318) rotate(18.000000) translate(-0.605952, -0.781318) " points="0.25376899 0.0742228111 0.25812629 1.4862346 0.958134876 1.48841325"></polyline>
                                </g>
                            </g>
                        </g>
                    </g>
                </g>
                <g id="s-link" transform="translate(1.124262, 4.240283)" fill-rule="nonzero">
                    <g id="s">
                        <g id="c" transform="translate(0.909091, 0.000000)">
                            <polyline id="t" transform="translate(0.815742, 0.781318) rotate(18.000000) translate(-0.815742, -0.781318) " points="0.4635592 0.0742228111 0.4679165 1.4862346 1.16792509 1.48841325"></polyline>
                            <g id="t-link" transform="translate(0.594406, 0.812721) scale(-1, 1) translate(-0.594406, -0.812721) ">
                                <polyline id="t" transform="translate(0.605952, 0.781318) rotate(18.000000) translate(-0.605952, -0.781318) " points="0.25376899 0.0742228111 0.25812629 1.4862346 0.958134876 1.48841325"></polyline>
                            </g>
                        </g>
                        <g id="c-link" transform="translate(2.173705, 1.227799) rotate(72.000000) translate(-2.173705, -1.227799) translate(1.474404, 0.415078)">
                            <g id="c">
                                <polyline id="t" transform="translate(0.815742, 0.781318) rotate(18.000000) translate(-0.815742, -0.781318) " points="0.4635592 0.0742228111 0.4679165 1.4862346 1.16792509 1.48841325"></polyline>
                                <g id="t-link" transform="translate(0.594406, 0.812721) scale(-1, 1) translate(-0.594406, -0.812721) ">
                                    <polyline id="t" transform="translate(0.605952, 0.781318) rotate(18.000000) translate(-0.605952, -0.781318) " points="0.25376899 0.0742228111 0.25812629 1.4862346 0.958134876 1.48841325"></polyline>
                                </g>
                            </g>
                        </g>
                        <g id="c-link" transform="translate(1.957774, 1.899410) rotate(144.000000) translate(-1.957774, -1.899410) translate(1.258474, 1.086689)">
                            <g id="c">
                                <polyline id="t" transform="translate(0.815742, 0.781318) rotate(18.000000) translate(-0.815742, -0.781318) " points="0.4635592 0.0742228111 0.4679165 1.4862346 1.16792509 1.48841325"></polyline>
                                <g id="t-link" transform="translate(0.594406, 0.812721) scale(-1, 1) translate(-0.594406, -0.812721) ">
                                    <polyline id="t" transform="translate(0.605952, 0.781318) rotate(18.000000) translate(-0.605952, -0.781318) " points="0.25376899 0.0742228111 0.25812629 1.4862346 0.958134876 1.48841325"></polyline>
                                </g>
                            </g>
                        </g>
                        <g id="c-link" transform="translate(1.259009, 1.899410) rotate(-144.000000) translate(-1.259009, -1.899410) translate(0.559708, 1.086689)">
                            <g id="c">
                                <polyline id="t" transform="translate(0.815742, 0.781318) rotate(18.000000) translate(-0.815742, -0.781318) " points="0.4635592 0.0742228111 0.4679165 1.4862346 1.16792509 1.48841325"></polyline>
                                <g id="t-link" transform="translate(0.594406, 0.812721) scale(-1, 1) translate(-0.594406, -0.812721) ">
                                    <polyline id="t" transform="translate(0.605952, 0.781318) rotate(18.000000) translate(-0.605952, -0.781318) " points="0.25376899 0.0742228111 0.25812629 1.4862346 0.958134876 1.48841325"></polyline>
                                </g>
                            </g>
                        </g>
                        <g id="c-link" transform="translate(1.043078, 1.227799) rotate(-72.000000) translate(-1.043078, -1.227799) translate(0.343778, 0.415078)">
                            <g id="c">
                                <polyline id="t" transform="translate(0.815742, 0.781318) rotate(18.000000) translate(-0.815742, -0.781318) " points="0.4635592 0.0742228111 0.4679165 1.4862346 1.16792509 1.48841325"></polyline>
                                <g id="t-link" transform="translate(0.594406, 0.812721) scale(-1, 1) translate(-0.594406, -0.812721) ">
                                    <polyline id="t" transform="translate(0.605952, 0.781318) rotate(18.000000) translate(-0.605952, -0.781318) " points="0.25376899 0.0742228111 0.25812629 1.4862346 0.958134876 1.48841325"></polyline>
                                </g>
                            </g>
                        </g>
                    </g>
                </g>
                <g id="s-link" transform="translate(4.195804, 1.136180)" fill-rule="nonzero">
                    <g id="s">
                        <g id="c" transform="translate(0.909091, 0.000000)">
                            <polyline id="t" transform="translate(0.815742, 0.781318) rotate(18.000000) translate(-0.815742, -0.781318) " points="0.4635592 0.0742228111 0.4679165 1.4862346 1.16792509 1.48841325"></polyline>
                            <g id="t-link" transform="translate(0.594406, 0.812721) scale(-1, 1) translate(-0.594406, -0.812721) ">
                                <polyline id="t" transform="translate(0.605952, 0.781318) rotate(18.000000) translate(-0.605952, -0.781318) " points="0.25376899 0.0742228111 0.25812629 1.4862346 0.958134876 1.48841325"></polyline>
                            </g>
                        </g>
                        <g id="c-link" transform="translate(2.173705, 1.227799) rotate(72.000000) translate(-2.173705, -1.227799) translate(1.474404, 0.415078)">
                            <g id="c">
                                <polyline id="t" transform="translate(0.815742, 0.781318) rotate(18.000000) translate(-0.815742, -0.781318) " points="0.4635592 0.0742228111 0.4679165 1.4862346 1.16792509 1.48841325"></polyline>
                                <g id="t-link" transform="translate(0.594406, 0.812721) scale(-1, 1) translate(-0.594406, -0.812721) ">
                                    <polyline id="t" transform="translate(0.605952, 0.781318) rotate(18.000000) translate(-0.605952, -0.781318) " points="0.25376899 0.0742228111 0.25812629 1.4862346 0.958134876 1.48841325"></polyline>
                                </g>
                            </g>
                        </g>
                        <g id="c-link" transform="translate(1.957774, 1.899410) rotate(144.000000) translate(-1.957774, -1.899410) translate(1.258474, 1.086689)">
                            <g id="c">
                                <polyline id="t" transform="translate(0.815742, 0.781318) rotate(18.000000) translate(-0.815742, -0.781318) " points="0.4635592 0.0742228111 0.4679165 1.4862346 1.16792509 1.48841325"></polyline>
                                <g id="t-link" transform="translate(0.594406, 0.812721) scale(-1, 1) translate(-0.594406, -0.812721) ">
                                    <polyline id="t" transform="translate(0.605952, 0.781318) rotate(18.000000) translate(-0.605952, -0.781318) " points="0.25376899 0.0742228111 0.25812629 1.4862346 0.958134876 1.48841325"></polyline>
                                </g>
                            </g>
                        </g>
                        <g id="c-link" transform="translate(1.259009, 1.899410) rotate(-144.000000) translate(-1.259009, -1.899410) translate(0.559708, 1.086689)">
                            <g id="c">
                                <polyline id="t" transform="translate(0.815742, 0.781318) rotate(18.000000) translate(-0.815742, -0.781318) " points="0.4635592 0.0742228111 0.4679165 1.4862346 1.16792509 1.48841325"></polyline>
                                <g id="t-link" transform="translate(0.594406, 0.812721) scale(-1, 1) translate(-0.594406, -0.812721) ">
                                    <polyline id="t" transform="translate(0.605952, 0.781318) rotate(18.000000) translate(-0.605952, -0.781318) " points="0.25376899 0.0742228111 0.25812629 1.4862346 0.958134876 1.48841325"></polyline>
                                </g>
                            </g>
                        </g>
                        <g id="c-link" transform="translate(1.043078, 1.227799) rotate(-72.000000) translate(-1.043078, -1.227799) translate(0.343778, 0.415078)">
                            <g id="c">
                                <polyline id="t" transform="translate(0.815742, 0.781318) rotate(18.000000) translate(-0.815742, -0.781318) " points="0.4635592 0.0742228111 0.4679165 1.4862346 1.16792509 1.48841325"></polyline>
                                <g id="t-link" transform="translate(0.594406, 0.812721) scale(-1, 1) translate(-0.594406, -0.812721) ">
                                    <polyline id="t" transform="translate(0.605952, 0.781318) rotate(18.000000) translate(-0.605952, -0.781318) " points="0.25376899 0.0742228111 0.25812629 1.4862346 0.958134876 1.48841325"></polyline>
                                </g>
                            </g>
                        </g>
                    </g>
                </g>
            </g>
        </g>
    </g>
</svg>