<?xml version="1.0" encoding="UTF-8"?>
<svg width="100px" height="100px" viewBox="0 0 100 100" version="1.1" xmlns="http://www.w3.org/2000/svg" xmlns:xlink="http://www.w3.org/1999/xlink">
    <!-- Generator: Sketch 64 (93537) - https://sketch.com -->
    <title>ic_superior_color</title>
    <desc>Created with Sketch.</desc>
    <g id="ic_superior_color" stroke="none" stroke-width="1" fill="none" fill-rule="evenodd">
        <g id="Group-2" transform="translate(6.000000, 33.000000)">
            <g id="Group">
                <path d="M5.22954384,34.5237182 C14.0022472,31.7282311 26.8610423,30.3304876 43.8059291,30.3304876 C60.7508159,30.3304876 73.8428039,31.7282311 83.0818932,34.5237182 L71.517953,3.53571116 C64.9360394,1.17857039 55.6986981,0 43.8059291,0 C31.9131601,0 23.2718128,0.846497498 17.8818871,2.53949249 L5.22954384,34.5237182 Z" id="Path-8" stroke="#18B0A6" stroke-width="2" stroke-linecap="round" stroke-linejoin="round"></path>
                <polygon id="Path-13" stroke="#18B0A6" stroke-width="2" stroke-linecap="round" stroke-linejoin="round" transform="translate(83.629187, 22.905366) scale(-1, 1) translate(-83.629187, -22.905366) " points="88.6524459 22.1913362 88.4042985 19.0799245 78.6059291 19.0799245 78.6059291 26.7308068 86.8512482 26.7308068"></polygon>
                <polygon id="Path-13" stroke="#18B0A6" stroke-width="2" stroke-linecap="round" stroke-linejoin="round" points="10.0465168 22.1913362 9.79836942 19.0799245 0 19.0799245 0 26.7308068 8.24531907 26.7308068"></polygon>
                <line x1="19.2" y1="31.2" x2="32.8520267" y2="17.6" id="Path-14" stroke="#18B0A6" stroke-width="2" stroke-linecap="round" stroke-linejoin="round"></line>
                <line x1="40.6260134" y1="29.968044" x2="52.8" y2="18.2240063" id="Path-14-Copy" stroke="#18B0A6" stroke-width="2" stroke-linecap="round" stroke-linejoin="round"></line>
                <polygon id="Path-16-Copy" stroke="#00625C" stroke-width="0.8" transform="translate(54.886426, 13.262619) rotate(-90.000000) translate(-54.886426, -13.262619) " points="53.3767587 15.8873829 58.4620917 -2.4 56.7875383 15.8873829 64.1728523 12.5390612 58.4620917 18.05898 61.4765412 20.0744614 56.7875383 20.0744614 56.7875383 26.5960545 54.7787896 21.91131 47.8001311 28.9252387 51.2369772 20.0744614 45.6 19.3000111 51.2369772 18.05898 50.9053657 13.1730266"></polygon>
            </g>
        </g>
    </g>
</svg>